# xmcd
#
# Track frame offsets:
#	182
#	15867
#	32070
#	51350
#	70187
#	93502
#	107047
#	123045
#	139537
#	155737
#	172840
#
# Disc length: 2543 seconds
#
# Revision: 0
# Processed by: cddbd v1.5PL3 Copyright (c) Steve Scherf et al.
# Submitted via: dBpowerAMP V4.0
#
DISCID=8309ed0b
DTITLE=Caballo Dorado - El Country Te Hara Bailar
DYEAR=2001
DGENRE=Country
TTITLE0=Buscando El Amor(Looking For Love)
TTITLE1=Hace Un Ano(A Year Ago)
TTITLE2=Violin Cherokee(Cherokee Fiddle)
TTITLE3=Ella Cree En Mi(She Believes In Me)
TTITLE4=Contra El Viento(Against The Wind)
TTITLE5=Me Gustan L as Noches Lluviosas(I Love A Rainy Night)
TTITLE6=En Mi Mente Siempre Estas(Always On My Mind)
TTITLE7=Lucille
TTITLE8=Tu Decoraste Mi Vida(You Decorated My Life)
TTITLE9=Manejando Mi Vida(Drivin' My Life Away)
TTITLE10=El Country Te Hara Bailar Otra Vez(The South's Gonna Do It)
EXTD=Caballo Dorado: Spanish Country Music At It's Best
EXTT0=
EXTT1=
EXTT2=
EXTT3=
EXTT4=
EXTT5=
EXTT6=
EXTT7=
EXTT8=
EXTT9=
EXTT10=
PLAYORDER=
